<svg version="1.1" xmlns="http://www.w3.org/2000/svg" width="340" height="431">
<path d="M0 0 C0.82079041 0.22591827 1.64158081 0.45183655 2.48724365 0.68460083 C3.24954285 0.85597565 4.01184204 1.02735046 4.79724121 1.20391846 C7.17126377 1.75974296 9.5082748 2.40015595 11.85443115 3.06350708 C12.7392366 3.3062587 13.62404205 3.54901031 14.53565979 3.79911804 C16.4604518 4.32804581 18.38425573 4.86057974 20.30715942 5.39633179 C24.58575298 6.58781938 28.86952992 7.76017668 33.15299988 8.93399048 C35.44829053 9.56309229 37.74334028 10.19307367 40.03816223 10.82388306 C51.22255093 13.8961622 62.42731278 16.88964628 73.63671875 19.86914062 C79.19903514 21.34768794 84.76061388 22.82900345 90.32215881 24.3104496 C91.67876841 24.67180894 93.03538677 25.03313534 94.39201355 25.39443016 C107.81782531 28.9701235 121.24068309 32.55684414 134.6630249 36.14553833 C135.72780437 36.43022476 136.79258385 36.71491119 137.88962936 37.00822449 C146.69596882 39.36281524 155.50221073 41.71777071 164.30844116 44.07276917 C171.9370067 46.11282151 179.56560748 48.15274199 187.1942749 50.19241333 C188.25041615 50.47479355 189.30655739 50.75717377 190.39470291 51.04811096 C203.82376208 54.6384124 217.25401509 58.22418377 230.6864624 61.80178833 C232.10847008 62.18059123 233.53047733 62.55939572 234.95248413 62.9382019 C241.20326508 64.60317979 247.45436888 66.26693399 253.70599365 67.92874146 C263.63811806 70.57142144 273.55997241 73.24213057 283.45762634 76.0112915 C290.61762176 78.01079848 297.81217998 79.8679394 305.0145874 81.70803833 C305.96462646 81.95296021 306.91466553 82.19788208 307.89349365 82.45022583 C308.73202881 82.66453247 309.57056396 82.87883911 310.43450928 83.09963989 C312.48724365 83.68460083 312.48724365 83.68460083 314.48724365 84.68460083 C314.7161856 125.40774227 314.892367 166.13079976 314.99789695 206.8544563 C315.01040385 211.66339876 315.02334709 216.47233995 315.03656006 221.28128052 C315.04049472 222.71732687 315.04049472 222.71732687 315.04450886 224.18238427 C315.08800957 239.67932299 315.16684804 255.17589035 315.25877161 270.67260884 C315.35232248 286.57642848 315.40783885 302.48005377 315.4281286 318.38413727 C315.44184286 328.19624002 315.48513822 338.0072931 315.56640832 347.81907268 C315.61931268 354.54952813 315.63523503 361.27944181 315.62225743 368.01009004 C315.61585831 371.89245939 315.62558783 375.77299632 315.6792984 379.65503883 C315.73718437 383.86976879 315.71708554 388.08061611 315.68978882 392.2956543 C315.71891723 393.51552029 315.74804565 394.73538627 315.77805674 395.9922179 C315.65731282 402.89392331 314.49800444 406.44707301 309.66324234 411.50396824 C305.31244849 415.52205248 305.31244849 415.52205248 302.27665281 416.12004167 C300.18122889 415.93880302 298.46629388 415.39272896 296.48724365 414.68460083 C294.95742877 414.31374579 293.42579761 413.95032844 291.89273071 413.59315491 C290.18824652 413.14070462 288.48528486 412.682492 286.78363037 412.21951294 C285.84554031 411.96887085 284.90745026 411.71822876 283.94093323 411.45999146 C280.84822628 410.63233675 277.75760191 409.79716776 274.66693115 408.96194458 C272.48591537 408.37672097 270.30477075 407.79197727 268.12350464 407.20768738 C262.37000943 405.66516931 256.61823846 404.11631616 250.86682129 402.56607056 C245.12408834 401.0192462 239.37984632 399.47804957 233.63568115 397.93655396 C225.88937281 395.85732637 218.14359217 393.77615665 210.39854813 391.6922245 C199.72656906 388.82093101 189.05066958 385.96499613 178.37005615 383.12600708 C170.09982934 380.92685671 161.84050485 378.69571568 153.59954834 376.38928223 C145.62010547 374.15604416 137.61656131 372.01414657 129.61224365 369.87210083 C127.85914225 369.4022449 126.10605017 368.93235424 124.35296631 368.46243286 C112.66079067 365.32990398 100.96465309 362.2123085 89.26778221 359.09736538 C86.11769403 358.25844947 82.96762438 357.41946408 79.81757212 356.58041334 C77.96638224 356.08733872 76.11517816 355.59431741 74.26397324 355.10129929 C54.54211134 349.84747255 34.8318721 344.55163816 15.12848663 339.22898102 C11.5356787 338.25853157 7.94272811 337.28861056 4.34979248 336.31863403 C-2.6045236 334.44111576 -9.55869243 332.56305288 -16.51275635 330.68460083 C-16.71877372 289.81701576 -16.87735203 248.9494984 -16.97234431 208.08149776 C-16.98360062 203.25624546 -16.99524953 198.43099418 -17.00714111 193.60574341 C-17.00950191 192.64512625 -17.0118627 191.68450908 -17.01429503 190.69478231 C-17.05345283 175.14224068 -17.12441151 159.58999858 -17.20713151 144.03763462 C-17.29130714 128.07844472 -17.34128781 112.11941163 -17.3595528 96.16000885 C-17.37189971 86.31267585 -17.41088858 76.46618945 -17.48400455 66.61911707 C-17.5315934 59.86579756 -17.54595412 53.11291545 -17.53426874 46.35944045 C-17.52850587 42.46315723 -17.53731141 38.56835272 -17.58560562 34.67233276 C-17.62954343 31.10161247 -17.63153522 27.53335856 -17.6008464 23.9625225 C-17.59526755 22.06622284 -17.63397075 20.16995052 -17.67448813 18.27407557 C-17.5725748 11.79297528 -16.77330126 8.17143661 -12.25617886 3.36613369 C-8.14845044 -0.44727041 -5.4359171 -1.12885726 0 0 Z " fill="#010101" transform="translate(16.51275634765625,10.315399169921875)"/>
<path d="M0 0 C4.1146875 0.9590625 4.1146875 0.9590625 8.3125 1.9375 C9.17270752 2.13722412 10.03291504 2.33694824 10.91918945 2.54272461 C11.60198975 2.70264893 12.28479004 2.86257324 12.98828125 3.02734375 C13.68477783 3.18968506 14.38127441 3.35202637 15.09887695 3.51928711 C16.7534406 3.93765565 18.38094108 4.46031369 20 5 C20.33 11.6 20.66 18.2 21 25 C30.26705836 28.56578665 30.26705836 28.56578665 40 30 C44.57142368 27.49192253 47.08826951 24.25506509 50 20 C50.33 20 50.66 20 51 20 C51.23397746 38.21114719 51.41012522 56.42190243 51.51812172 74.63422966 C51.56960778 83.09130074 51.63975272 91.54743601 51.75439453 100.00390625 C51.85431177 107.37776686 51.91863891 114.75094959 51.94088495 122.12546837 C51.95388274 126.02785781 51.98425046 129.92830865 52.05730057 133.83007431 C52.12562489 137.50953798 52.14603161 141.18628184 52.13107681 144.86631966 C52.13510302 146.8471528 52.18869404 148.82769516 52.24420166 150.80775452 C52.16458657 157.75850173 51.16749724 161.71061501 46.42904663 166.94241333 C42.01030934 170.77237511 42.01030934 170.77237511 38.90026474 171.47307491 C36.76958338 171.25764375 35.01510654 170.72102952 33 170 C31.47018512 169.62914496 29.93855396 169.26572761 28.40548706 168.90855408 C26.70100287 168.45610379 24.99804121 167.99789117 23.29638672 167.53491211 C21.88925163 167.15894897 21.88925163 167.15894897 20.45368958 166.77539062 C17.36098263 165.94773592 14.27035826 165.11256693 11.1796875 164.27734375 C8.99867171 163.69212013 6.8175271 163.10737644 4.63626099 162.52308655 C-1.11723423 160.98056848 -6.8690052 159.43171533 -12.62042236 157.88146973 C-18.36315532 156.33464537 -24.10739783 154.79345059 -29.8515625 153.25195312 C-37.58882929 151.17512837 -45.32559907 149.09647351 -53.06165028 147.01512527 C-65.08478935 143.78050524 -77.11175434 140.56072688 -89.14541626 137.36546326 C-95.98189683 135.54813003 -102.80164207 133.67866319 -109.61134338 131.76368713 C-116.92570222 129.70901719 -124.2881487 127.83420922 -131.65209961 125.96630859 C-132.5931958 125.72477051 -133.53429199 125.48323242 -134.50390625 125.234375 C-135.34767822 125.02006836 -136.1914502 124.80576172 -137.06079102 124.58496094 C-139 124 -139 124 -140 123 C-140.09386381 121.1281906 -140.11743804 119.2528194 -140.11352539 117.37866211 C-140.11344986 116.17749252 -140.11337433 114.97632294 -140.11329651 113.73875427 C-140.10813522 112.4314888 -140.10297394 111.12422333 -140.09765625 109.77734375 C-140.09579198 108.43355868 -140.09436812 107.08977293 -140.09336853 105.74598694 C-140.08954402 102.20317723 -140.07971432 98.6604083 -140.06866455 95.11761475 C-140.05844899 91.50484773 -140.0538706 87.89207416 -140.04882812 84.27929688 C-140.03809198 77.1861812 -140.02101636 70.09309326 -140 63 C-133.21471947 63.6401208 -127.79892483 65.14574777 -121 67 C-120.67 54.13 -120.34 41.26 -120 28 C-128.415 26.02 -128.415 26.02 -137 24 C-137.99 23.67 -138.98 23.34 -140 23 C-140 16.4 -140 9.8 -140 3 C-134.55342033 3.68082246 -129.935488 4.41060717 -124.7265625 5.8125 C-124.07674408 5.98628174 -123.42692566 6.16006348 -122.75741577 6.33911133 C-121.40059101 6.70306125 -120.0444416 7.0695379 -118.68896484 7.43847656 C-116.61058622 8.00392142 -114.53013677 8.56116855 -112.44921875 9.1171875 C-102.30987906 11.84506047 -102.30987906 11.84506047 -100 13 C-99.67 19.6 -99.34 26.2 -99 33 C-96.74373779 33.60062256 -94.48747559 34.20124512 -92.1628418 34.82006836 C-84.7146933 36.80292983 -77.26681883 38.78681901 -69.8190794 40.77121639 C-65.30277651 41.97451937 -60.78638148 43.17747419 -56.26977539 44.37963867 C-51.91239322 45.53943687 -47.55525374 46.70014265 -43.19828224 47.86148262 C-41.53457086 48.30476897 -39.87077176 48.7477262 -38.20688438 49.19035149 C-35.8794716 49.80954672 -33.55237125 50.42990307 -31.2253418 51.05053711 C-30.53482224 51.2339566 -29.84430267 51.4173761 -29.13285828 51.60635376 C-26.3924138 52.33832512 -23.69193129 53.10268957 -21 54 C-20.67 41.13 -20.34 28.26 -20 15 C-12.8762616 16.01767691 -6.83231577 17.8164764 0 20 C0 13.4 0 6.8 0 0 Z " fill="#000000" transform="translate(280,255)"/>
<path d="M0 0 C2.35942104 0.61751741 4.72387573 1.21597275 7.09179688 1.80004883 C9.80325323 2.50974916 12.51058945 3.23486729 15.21875 3.95703125 C16.68585097 4.34599343 18.15301539 4.73471639 19.62023926 5.12321472 C22.68677372 5.93584418 25.75277516 6.75044362 28.81835938 7.56665039 C32.69261249 8.59813493 36.56778928 9.6260935 40.44332123 10.65276146 C67.61034749 17.85054019 67.61034749 17.85054019 80.46191406 21.4566803 C87.45679702 23.41814677 94.48911645 25.22528394 101.52734375 27.0234375 C102.95240234 27.39082031 102.95240234 27.39082031 104.40625 27.765625 C105.24478516 27.97993164 106.08332031 28.19423828 106.94726562 28.41503906 C109 29 109 29 111 30 C111.25762493 45.45558483 111.45125858 60.91100788 111.56993389 76.3682375 C111.62651739 83.54643588 111.70357175 90.72329589 111.82983398 97.90063477 C111.93990827 104.16079004 112.01054008 110.41997575 112.03497344 116.68107194 C112.04924614 119.99324515 112.08834315 123.30201902 112.16303062 126.61345863 C112.65791772 149.47195311 112.65791772 149.47195311 107.35321522 155.82345104 C105.00593069 158.14251624 103.03542786 159.66357765 100 161 C95.776326 160.88963551 92.07072726 160.20050281 88.11914062 158.7421875 C83.30009944 157.06207552 78.43004224 155.73877081 73.49475098 154.44482422 C69.90032732 153.5009743 66.31490559 152.52793628 62.73046875 151.546875 C61.49345215 151.20849609 60.25643555 150.87011719 58.98193359 150.52148438 C57.75039551 150.18439453 56.51885742 149.84730469 55.25 149.5 C50.40151544 148.17534246 45.55250119 146.85263961 40.703125 145.53125 C39.45978394 145.19230713 38.21644287 144.85336426 36.9354248 144.50415039 C17.64581125 139.25388346 -1.68022336 134.13788301 -21 129 C-21.10322145 113.39604002 -21.14889185 97.79302567 -21.12697029 82.1887989 C-21.1181168 74.94255787 -21.12774699 67.69724036 -21.18164062 60.45117188 C-21.22859445 54.1317543 -21.24010351 47.81340935 -21.2099179 41.49387252 C-21.19516088 38.15000455 -21.20284636 34.80993773 -21.24249649 31.46600723 C-21.50224373 7.9642478 -21.50224373 7.9642478 -15.55029297 1.15966797 C-9.82472533 -3.01938194 -6.33121966 -2.34125229 0 0 Z " fill="#010101" transform="translate(220,65)"/>
<path d="M0 0 C0.82079041 0.22591827 1.64158081 0.45183655 2.48724365 0.68460083 C3.24954285 0.85597565 4.01184204 1.02735046 4.79724121 1.20391846 C7.17126886 1.75974416 9.50826208 2.40017734 11.85443115 3.06350708 C12.74367783 3.30743698 13.6329245 3.55136688 14.54911804 3.8026886 C16.4784024 4.33278344 18.40669476 4.86649944 20.33407593 5.4034729 C25.61124944 6.87365929 30.89563041 8.31762365 36.1786499 9.76663208 C37.86926796 10.23164627 37.86926796 10.23164627 39.59403992 10.70605469 C48.6817927 13.20207486 57.78253875 15.64689901 66.8895874 18.07131958 C67.57450005 18.25366716 68.25941269 18.43601475 68.96508026 18.62388802 C73.74292661 19.89553672 78.52127194 21.16530439 83.29974365 22.43460083 C87.24160031 23.48171313 91.18336712 24.52915779 95.12483215 25.57774353 C97.49148918 26.20736261 99.8583709 26.83613789 102.22550964 27.46394348 C103.27328079 27.74268814 104.32105194 28.0214328 105.40057373 28.30862427 C106.31502762 28.55143127 107.22948151 28.79423828 108.17164612 29.04440308 C109.95889703 29.53852781 111.72810108 30.09821997 113.48724365 30.68460083 C112.11086084 33.89437429 110.61794281 35.52782352 107.91764832 37.69645691 C103.95086147 41.5824779 103.64871507 44.75273927 103.55284119 50.17089844 C103.56865738 51.26782013 103.58447357 52.36474182 103.60076904 53.49490356 C103.58460541 55.25207954 103.58460541 55.25207954 103.56811523 57.04475403 C103.54078399 60.90321221 103.56258231 64.75973095 103.5848999 68.61819458 C103.57551443 71.29868491 103.56339858 73.97902368 103.5476532 76.6594696 C103.51647165 82.98469813 103.52066483 89.30938319 103.53772777 95.63464552 C103.55542816 102.83913452 103.533449 110.04333405 103.50822079 117.24778068 C103.4572362 132.06011511 103.45580777 146.87220639 103.48724365 161.68460083 C96.94967866 160.56285689 90.52237802 159.29734123 84.12371826 157.54910278 C83.36408279 157.34547623 82.60444733 157.14184967 81.8217926 156.93205261 C79.34323508 156.26654156 76.86642329 155.59476936 74.3895874 154.92288208 C72.62924004 154.44887474 70.86878549 153.97526534 69.10823059 153.50202942 C64.48286783 152.25760303 59.85895993 151.00785411 55.23535156 149.75692749 C50.61900129 148.508932 46.00132062 147.2658809 41.38372803 146.02249146 C35.15217614 144.34416733 28.92134151 142.66323174 22.69146156 140.97871208 C15.83247851 139.12418135 8.97174081 137.27699868 2.10491943 135.45169067 C0.87439346 135.12371994 -0.35613251 134.79574921 -1.62394714 134.45783997 C-3.85379859 133.86420712 -6.08435605 133.27321725 -8.31575012 132.68540955 C-9.26820114 132.43143906 -10.22065216 132.17746857 -11.20196533 131.915802 C-12.42761452 131.59176643 -12.42761452 131.59176643 -13.67802429 131.26118469 C-15.51275635 130.68460083 -15.51275635 130.68460083 -16.51275635 129.68460083 C-16.62816715 128.13661979 -16.67457413 126.58344159 -16.693573 125.03128052 C-16.7079541 124.02479965 -16.72233521 123.01831879 -16.7371521 121.9813385 C-16.74769623 120.86763382 -16.75824036 119.75392914 -16.769104 118.60647583 C-16.78370667 117.4406044 -16.79830933 116.27473297 -16.81335449 115.0735321 C-16.93953178 104.29598496 -17.00956297 93.5176029 -17.06119728 82.73945618 C-17.10004615 74.77534018 -17.16826515 66.81264562 -17.27574503 58.84915352 C-17.34878681 53.24736387 -17.38706224 47.64596087 -17.40022314 42.04371452 C-17.40906414 38.69944519 -17.43773687 35.3583163 -17.49489212 32.01431274 C-17.55567993 28.27433778 -17.55961238 24.53825076 -17.550354 20.79788208 C-17.58114044 19.70037125 -17.61192688 18.60286041 -17.64364624 17.47209167 C-17.56057799 11.28553498 -16.5584317 8.00832983 -12.25897217 3.4407196 C-8.14732087 -0.43195745 -5.47992739 -1.13799672 0 0 Z " fill="#010101" transform="translate(16.51275634765625,10.315399169921875)"/>
<path d="M0 0 C19.53612096 4.59673434 19.53612096 4.59673434 28.16967773 6.91674805 C29.15405823 7.17907227 30.13843872 7.44139648 31.15264893 7.71166992 C34.33030427 8.55918657 37.50697912 9.41031046 40.68359375 10.26171875 C42.91890789 10.85911193 45.15426533 11.4563431 47.3896637 12.05342102 C52.03503375 13.29481072 56.67992452 14.53797307 61.32446289 15.7824707 C67.28552021 17.37959656 73.24771191 18.97244078 79.2102499 20.56402874 C83.80787143 21.79172626 88.40493171 23.02151421 93.0018177 24.25196266 C95.20216409 24.84068407 97.4026781 25.42877931 99.60336113 26.01624107 C102.65989083 26.8325284 105.71566288 27.65159166 108.77124023 28.47143555 C109.68176651 28.71402603 110.59229279 28.95661652 111.53041077 29.20655823 C112.35842194 29.42933441 113.18643311 29.6521106 114.03953552 29.88163757 C114.76042075 30.07462779 115.48130598 30.26761801 116.22403622 30.46645641 C118 31 118 31 120 32 C120 71.6 120 111.2 120 152 C110.99974054 150.87496757 110.99974054 150.87496757 107.59350586 149.96289062 C106.81414673 149.75694778 106.0347876 149.55100494 105.23181152 149.33882141 C104.40121216 149.11357285 103.57061279 148.88832428 102.71484375 148.65625 C101.80859253 148.415009 100.90234131 148.17376801 99.96862793 147.92521667 C96.95684686 147.12196844 93.94718593 146.31106007 90.9375 145.5 C88.81333742 144.93165495 86.68906725 144.36371191 84.56469727 143.79614258 C78.03557711 142.04945721 71.50914841 140.29285996 64.98321533 138.53430939 C62.22208228 137.79041674 59.46077555 137.04716972 56.69947815 136.30388737 C53.04957741 135.32135849 49.3997749 134.33846495 45.75 133.35546875 C45.09236664 133.17835169 44.43473328 133.00123463 43.75717163 132.81875038 C29.168766 128.88907297 14.58489156 124.94272893 0 121 C0 81.07 0 41.14 0 0 Z " fill="#010101" transform="translate(0,220)"/>
<path d="M0 0 C19 5 19 5 20 6 C20.08669432 7.4887186 20.10703494 8.981445 20.09765625 10.47265625 C20.09443359 11.37177734 20.09121094 12.27089844 20.08789062 13.19726562 C20.07951172 14.14279297 20.07113281 15.08832031 20.0625 16.0625 C20.05798828 17.01189453 20.05347656 17.96128906 20.04882812 18.93945312 C20.03700109 21.29303369 20.01968094 23.64647581 20 26 C20.56456909 26.08414658 21.12913818 26.16829315 21.71081543 26.25498962 C31.57195936 27.87947552 41.14397456 30.59080525 50.78125 33.19140625 C52.68638654 33.7021768 54.59162099 34.2125823 56.49694824 34.72264099 C60.46808313 35.78664826 64.43844972 36.85345761 68.40820312 37.92260742 C73.49932202 39.29376527 78.59167345 40.66027319 83.68451691 42.02501011 C88.55047311 43.32906589 93.41591794 44.63502401 98.28125 45.94140625 C99.20885635 46.19038729 100.13646271 46.43936832 101.09217834 46.69589424 C103.70821544 47.39852623 106.32389638 48.10246705 108.93945312 48.80688477 C109.71554932 49.01521439 110.49164551 49.22354401 111.29125977 49.43818665 C114.22142789 50.22855767 117.12007641 51.04002547 120 52 C120 45.4 120 38.8 120 32 C125.37571166 33.40379959 130.75103944 34.80892308 136.12548828 36.2175293 C137.95470657 36.69651746 139.78413314 37.17471097 141.61376953 37.65209961 C144.24045826 38.3376013 146.86638981 39.02593794 149.4921875 39.71484375 C150.31306854 39.92842026 151.13394958 40.14199677 151.97970581 40.36204529 C157.77225659 41.88612829 157.77225659 41.88612829 160 43 C160 49.6 160 56.2 160 63 C163.526875 63.804375 163.526875 63.804375 167.125 64.625 C174.45711509 66.33043379 181.73459362 68.2181268 189 70.1875 C189.97340332 70.44934082 190.94680664 70.71118164 191.94970703 70.98095703 C192.85317871 71.2282959 193.75665039 71.47563477 194.6875 71.73046875 C195.49574219 71.95114014 196.30398437 72.17181152 197.13671875 72.39916992 C199 73 199 73 200 74 C200.08669432 75.4887186 200.10703494 76.981445 200.09765625 78.47265625 C200.09443359 79.37177734 200.09121094 80.27089844 200.08789062 81.19726562 C200.07951172 82.14279297 200.07113281 83.08832031 200.0625 84.0625 C200.05798828 85.01189453 200.05347656 85.96128906 200.04882812 86.93945312 C200.0370011 89.29303065 200.02052025 91.64648477 200 94 C200.66547852 94.12286377 201.33095703 94.24572754 202.01660156 94.37231445 C208.16407919 95.51971633 214.03506416 97.12530588 220 99 C220 92.4 220 85.8 220 79 C243.61723724 84.86035663 243.61723724 84.86035663 252.9375 87.3125 C254.68353516 87.77076172 254.68353516 87.77076172 256.46484375 88.23828125 C259 89 259 89 260 90 C260.08868299 92.95705321 260.11520296 95.89065056 260.09765625 98.84765625 C260.09553383 100.17729652 260.09553383 100.17729652 260.09336853 101.53379822 C260.08775215 104.37673254 260.07519691 107.21958931 260.0625 110.0625 C260.05748711 111.98502491 260.05292384 113.90755104 260.04882812 115.83007812 C260.03777741 120.55341549 260.02050183 125.27669458 260 130 C256.77863216 129.14588491 253.55728216 128.29170254 250.3359375 127.4375 C249.32818268 127.17028137 248.32042786 126.90306274 247.28213501 126.62774658 C241.73214629 125.15595865 236.18233014 123.68352421 230.6328125 122.20996094 C228.38802233 121.61392666 226.14323067 121.017898 223.8984375 120.421875 C222.78692322 120.12674011 221.67540894 119.83160522 220.5302124 119.52752686 C214.80888945 118.00893475 209.08671035 116.4937163 203.36245728 114.98620605 C200.54304348 114.24349593 197.72425182 113.49844484 194.90557861 112.75292969 C193.02800921 112.25739233 191.14950853 111.76538786 189.27099609 111.2734375 C188.17094238 110.98210937 187.07088867 110.69078125 185.9375 110.390625 C184.52791016 110.0198584 184.52791016 110.0198584 183.08984375 109.64160156 C181 109 181 109 180 108 C179.91330568 106.5112814 179.89296506 105.018555 179.90234375 103.52734375 C179.90556641 102.62822266 179.90878906 101.72910156 179.91210938 100.80273438 C179.92048828 99.85720703 179.92886719 98.91167969 179.9375 97.9375 C179.94201172 96.98810547 179.94652344 96.03871094 179.95117188 95.06054688 C179.9629989 92.70696935 179.97947975 90.35351523 180 88 C179.03964844 87.78085937 178.07929688 87.56171875 177.08984375 87.3359375 C164.66143106 84.46962038 152.33050272 81.25916371 140 78 C140 84.6 140 91.2 140 98 C141.44375 98.268125 142.8875 98.53625 144.375 98.8125 C149.78312076 99.81686528 154.62321531 101.38696459 160 103 C160 116.2 160 129.4 160 143 C150.1 140.525 150.1 140.525 140 138 C140 157.8 140 177.6 140 198 C123 194 123 194 120 193 C120 153.07 120 113.14 120 72 C114.39 70.68 108.78 69.36 103 68 C93.57188962 65.55496484 93.57188962 65.55496484 90.30592346 64.67704773 C89.58047396 64.48237097 88.85502445 64.28769421 88.10759163 64.08711815 C87.36181295 63.88692385 86.61603428 63.68672955 85.84765625 63.48046875 C84.25277801 63.05433731 82.65784145 62.62842408 81.06285095 62.20271301 C76.90165071 61.09142193 72.74126701 59.97710441 68.58105469 58.86212158 C64.42630306 57.7492273 60.27072397 56.63943175 56.11523438 55.52929688 C48.94579043 53.61353297 41.77741982 51.69379523 34.60976601 49.77134514 C30.35392251 48.63010874 26.09736524 47.49160574 21.83990955 46.35639858 C18.80823556 45.5476968 15.77723376 44.7364818 12.74609375 43.92578125 C11.13058372 43.4963044 11.13058372 43.4963044 9.48243713 43.05815125 C8.51297653 42.79830948 7.54351593 42.53846771 6.54467773 42.27075195 C5.7081517 42.0475679 4.87162567 41.82438385 4.00975037 41.59443665 C2 41 2 41 0 40 C0 26.8 0 13.6 0 0 Z " fill="#FCFCFC" transform="translate(0,180)"/>
<path d="M0 0 C27.70094706 6.92523676 27.70094706 6.92523676 38.33984375 9.83203125 C39.52429581 10.15411057 40.70874786 10.47618988 41.92909241 10.80802917 C44.37112197 11.47289097 46.81281224 12.13900031 49.25415039 12.80639648 C53.01264712 13.83302637 56.77286536 14.85318338 60.53320312 15.87304688 C62.92718755 16.52565948 65.32107185 17.17863952 67.71484375 17.83203125 C68.83745102 18.13615433 69.96005829 18.4402774 71.11668396 18.75361633 C72.14028519 19.03448593 73.16388641 19.31535553 74.21850586 19.60473633 C75.57219521 19.97396965 75.57219521 19.97396965 76.95323181 20.35066223 C79 21 79 21 80 22 C80.09500548 24.46444057 80.12557985 26.90074626 80.11352539 29.36547852 C80.11367142 30.13615662 80.11381744 30.90683472 80.1139679 31.7008667 C80.1132686 34.26024139 80.10547545 36.8195442 80.09765625 39.37890625 C80.09579213 41.14867615 80.0943682 42.91844656 80.09336853 44.68821716 C80.08954288 49.35551366 80.0797122 54.02277923 80.06866455 58.69006348 C80.05845144 63.44897035 80.05387113 68.20788221 80.04882812 72.96679688 C80.03808997 82.31121153 80.02101299 91.6556032 80 101 C72.58488857 99.61842912 65.31530213 97.85492961 58.02734375 95.91796875 C56.9054213 95.62191238 55.78349884 95.32585602 54.62757874 95.02082825 C52.26313487 94.39611665 49.89908109 93.76992695 47.53540039 93.14233398 C43.97321991 92.19697958 40.40957623 91.25730997 36.84570312 90.31835938 C34.53115959 89.70607083 32.21670369 89.09345089 29.90234375 88.48046875 C28.86214584 88.20631638 27.82194794 87.932164 26.75022888 87.64970398 C17.77615048 85.26144508 8.91965386 82.62342761 0 80 C0 53.6 0 27.2 0 0 Z " fill="#FAFAFA" transform="translate(220,99)"/>
<path d="M0 0 C9.0493302 1.43097208 17.82931724 3.70224102 26.66015625 6.09765625 C28.14171167 6.49629473 29.62335704 6.89459909 31.10508728 7.29258728 C34.18596242 8.1210934 37.26602027 8.95254803 40.34545898 9.78637695 C44.29525139 10.85577499 48.24660803 11.91925227 52.19852543 12.98076725 C55.24695172 13.79998872 58.2947661 14.6214664 61.3423748 15.44372368 C62.8003207 15.83695789 64.25840552 16.22967745 65.71663094 16.62187386 C67.74405648 17.16769545 69.77069238 17.71635279 71.79711914 18.26586914 C72.94974747 18.57738419 74.10237579 18.88889923 75.28993225 19.20985413 C78 20 78 20 80 21 C80 47.4 80 73.8 80 101 C71.04875 98.64875 62.0975 96.2975 52.875 93.875 C50.0994873 93.14651855 47.32397461 92.41803711 44.46435547 91.66748047 C33.03356807 88.66442862 21.60581368 85.64966332 10.1953125 82.5703125 C8.80661453 82.19916824 8.80661453 82.19916824 7.38986206 81.82052612 C6.13751266 81.48034958 6.13751266 81.48034958 4.85986328 81.13330078 C3.77041916 80.83928879 3.77041916 80.83928879 2.65896606 80.53933716 C1 80 1 80 0 79 C-0.09500548 76.53555943 -0.12557985 74.09925374 -0.11352539 71.63452148 C-0.11367142 70.86384338 -0.11381744 70.09316528 -0.1139679 69.2991333 C-0.1132686 66.73975861 -0.10547545 64.1804558 -0.09765625 61.62109375 C-0.09579213 59.85132385 -0.0943682 58.08155344 -0.09336853 56.31178284 C-0.08954288 51.64448634 -0.0797122 46.97722077 -0.06866455 42.30993652 C-0.05845144 37.55102965 -0.05387113 32.79211779 -0.04882812 28.03320312 C-0.03808997 18.68878847 -0.02101299 9.3443968 0 0 Z " fill="#F8F8F8" transform="translate(20,246)"/>
<path d="M0 0 C9.0493302 1.43097208 17.82931724 3.70224102 26.66015625 6.09765625 C28.14171167 6.49629473 29.62335704 6.89459909 31.10508728 7.29258728 C34.18596242 8.1210934 37.26602027 8.95254803 40.34545898 9.78637695 C44.29525139 10.85577499 48.24660803 11.91925227 52.19852543 12.98076725 C55.24695172 13.79998872 58.2947661 14.6214664 61.3423748 15.44372368 C62.8003207 15.83695789 64.25840552 16.22967745 65.71663094 16.62187386 C67.74405648 17.16769545 69.77069238 17.71635279 71.79711914 18.26586914 C72.94974747 18.57738419 74.10237579 18.88889923 75.28993225 19.20985413 C78 20 78 20 80 21 C80 47.4 80 73.8 80 101 C71.04875 98.64875 62.0975 96.2975 52.875 93.875 C50.0994873 93.14651855 47.32397461 92.41803711 44.46435547 91.66748047 C33.03356807 88.66442862 21.60581368 85.64966332 10.1953125 82.5703125 C8.80661453 82.19916824 8.80661453 82.19916824 7.38986206 81.82052612 C6.13751266 81.48034958 6.13751266 81.48034958 4.85986328 81.13330078 C3.77041916 80.83928879 3.77041916 80.83928879 2.65896606 80.53933716 C1 80 1 80 0 79 C-0.09500548 76.53555943 -0.12557985 74.09925374 -0.11352539 71.63452148 C-0.11367142 70.86384338 -0.11381744 70.09316528 -0.1139679 69.2991333 C-0.1132686 66.73975861 -0.10547545 64.1804558 -0.09765625 61.62109375 C-0.09579213 59.85132385 -0.0943682 58.08155344 -0.09336853 56.31178284 C-0.08954288 51.64448634 -0.0797122 46.97722077 -0.06866455 42.30993652 C-0.05845144 37.55102965 -0.05387113 32.79211779 -0.04882812 28.03320312 C-0.03808997 18.68878847 -0.02101299 9.3443968 0 0 Z " fill="#F8F8F8" transform="translate(20,46)"/>
<path d="M0 0 C7.91703027 1.48676625 15.65972233 3.41425111 23.4375 5.5 C24.83710265 5.87268589 26.23676366 6.24515269 27.63647461 6.61743164 C37.95299322 9.36585574 48.26105958 12.14586993 58.57025719 14.92159653 C60.82509957 15.5286325 63.07999821 16.13545909 65.33491516 16.74221802 C66.85421857 17.15105815 68.37352093 17.55990216 69.89282227 17.96875 C70.64911077 18.17226011 71.40539927 18.37577023 72.1846056 18.58544731 C76.74902341 19.81396186 81.31282749 21.04472661 85.87618256 22.27718258 C88.77958842 23.06094887 91.68342454 23.84311244 94.58735275 24.62494087 C95.95037075 24.99229549 97.31320255 25.36034178 98.67583084 25.72913933 C102.77880945 26.83943432 106.88682773 27.92812114 111 29 C112.37652237 29.37137085 112.37652237 29.37137085 113.78085327 29.75024414 C115.83095079 30.26810053 117.91470421 30.64983351 120 31 C123.16664592 29.1195743 123.16664592 29.1195743 125.5 26.125 C126.3353125 25.17882812 127.170625 24.23265625 128.03125 23.2578125 C128.6809375 22.51273438 129.330625 21.76765625 130 21 C130.33 21 130.66 21 131 21 C131.25634227 28.63208779 131.45104724 36.26372302 131.56993389 43.8991518 C131.62703883 47.44612838 131.70428597 50.99013409 131.82983398 54.53540039 C132.72557597 80.5281442 132.72557597 80.5281442 127.52946472 87.11997986 C124.45943644 90.1212191 121.59328422 91.79998361 117.32983398 92.33520508 C114.60605859 91.99048672 112.41853375 91.27470388 109.875 90.25 C108.60269531 89.83041016 108.60269531 89.83041016 107.3046875 89.40234375 C101.40865239 87.40865239 101.40865239 87.40865239 100 86 C99.91330568 84.5112814 99.89296506 83.018555 99.90234375 81.52734375 C99.90717773 80.17866211 99.90717773 80.17866211 99.91210938 78.80273438 C99.92467773 77.38444336 99.92467773 77.38444336 99.9375 75.9375 C99.94201172 74.98810547 99.94652344 74.03871094 99.95117188 73.06054688 C99.9629989 70.70696935 99.97947975 68.35351523 100 66 C99.00178223 65.81570435 99.00178223 65.81570435 97.98339844 65.62768555 C91.83592081 64.48028367 85.96493584 62.87469412 80 61 C80 54.4 80 47.8 80 41 C77.76476562 40.44570312 75.52953125 39.89140625 73.2265625 39.3203125 C64.4288906 37.12680339 55.65554553 34.8432829 46.88720703 32.53564453 C44.34333078 31.86667183 41.7986344 31.20088009 39.25390625 30.53515625 C37.61453285 30.10435872 35.97520808 29.67337608 34.3359375 29.2421875 C33.58589447 29.0463205 32.83585144 28.85045349 32.06307983 28.64865112 C31.35438751 28.46150543 30.64569519 28.27435974 29.91552734 28.08154297 C29.30204437 27.92040009 28.6885614 27.7592572 28.05648804 27.5932312 C25.34583008 26.81129284 22.67641267 25.89213756 20 25 C20 31.6 20 38.2 20 45 C10.50894689 42.64983447 1.03001113 40.25587138 -8.4375 37.8125 C-9.46238525 37.55065918 -10.48727051 37.28881836 -11.54321289 37.01904297 C-12.97395142 36.64803467 -12.97395142 36.64803467 -14.43359375 36.26953125 C-15.29009521 36.04885986 -16.14659668 35.82818848 -17.02905273 35.60083008 C-19 35 -19 35 -20 34 C-20.08651611 32.58429877 -20.10704904 31.164405 -20.09765625 29.74609375 C-20.09443359 28.89208984 -20.09121094 28.03808594 -20.08789062 27.15820312 C-20.07951172 26.26037109 -20.07113281 25.36253906 -20.0625 24.4375 C-20.05798828 23.53580078 -20.05347656 22.63410156 -20.04882812 21.70507812 C-20.03700225 19.46998686 -20.0205222 17.23502563 -20 15 C-13.39374621 15.73323722 -7.39861429 17.16039839 -1 19 C-0.67 12.73 -0.34 6.46 0 0 Z " fill="#F9F9F9" transform="translate(200,194)"/>
<path d="M0 0 C23.99994761 6.04080314 47.92127224 12.35700798 71.8125 18.8125 C72.83751051 19.0893268 72.83751051 19.0893268 73.8832283 19.37174606 C89.27049364 23.52751392 104.64970641 27.70933584 120 32 C120 38.6 120 45.2 120 52 C106.59710459 48.91614796 93.29608889 45.51438473 80 42 C80 48.27 80 54.54 80 61 C73.15667347 59.7290965 66.64032261 58.08695854 60 56 C60 49.4 60 42.8 60 36 C54.54076731 34.72708144 54.54076731 34.72708144 49.08081055 33.45727539 C48.39801025 33.29735107 47.71520996 33.13742676 47.01171875 32.97265625 C46.31522217 32.81031494 45.61872559 32.64797363 44.90112305 32.48071289 C43.2465594 32.06234435 41.61905892 31.53968631 40 31 C40 37.6 40 44.2 40 51 C36.885625 50.195625 33.77125 49.39125 30.5625 48.5625 C29.08825562 48.18460327 29.08825562 48.18460327 27.58422852 47.79907227 C26.81522217 47.59854248 26.04621582 47.3980127 25.25390625 47.19140625 C24.46314697 46.98717041 23.6723877 46.78293457 22.85766602 46.57250977 C21 46 21 46 20 45 C19.91330568 43.5112814 19.89296506 42.018555 19.90234375 40.52734375 C19.90556641 39.62822266 19.90878906 38.72910156 19.91210938 37.80273438 C19.92048828 36.85720703 19.92886719 35.91167969 19.9375 34.9375 C19.94201172 33.98810547 19.94652344 33.03871094 19.95117188 32.06054688 C19.9629989 29.70696935 19.97947975 27.35351523 20 25 C19.00178223 24.81570435 19.00178223 24.81570435 17.98339844 24.62768555 C11.83592081 23.48028367 5.96493584 21.87469412 0 20 C0 13.4 0 6.8 0 0 Z " fill="#FDFDFD" transform="translate(0,140)"/>
<path d="M0 0 C1.36917673 0.38798027 2.72270445 0.8327902 4.0625 1.3125 C6.06126038 1.83807046 8.06131704 2.35873058 10.0625 2.875 C11.73072271 3.34872085 13.39796212 3.82598985 15.0625 4.3125 C15.0625 5.3025 15.0625 6.2925 15.0625 7.3125 C13.79661754 8.51115386 12.47428387 9.65083026 11.125 10.75476074 C6.78312372 14.9678632 6.11662386 17.98425406 6.00367737 23.92321777 C6.03279457 25.5632074 6.03279457 25.5632074 6.0625 27.23632812 C6.04611732 28.99372314 6.04611732 28.99372314 6.02940369 30.78662109 C6.0027982 34.63989027 6.03231508 38.49054264 6.0625 42.34375 C6.05497908 45.02282704 6.04433423 47.70170962 6.02954102 50.3807373 C6.00147826 56.69894059 6.01383798 63.01638259 6.04096508 69.33456373 C6.06988011 76.53181718 6.05336116 83.72874643 6.03315353 90.92600346 C5.99262328 105.72164286 6.00873349 120.51689533 6.0625 135.3125 C-1.16537864 134.6401392 -6.61602515 132.56526149 -13.9375 130.3125 C-13.9375 110.5125 -13.9375 90.7125 -13.9375 70.3125 C-19.5475 68.9925 -25.1575 67.6725 -30.9375 66.3125 C-31.9275 65.9825 -32.9175 65.6525 -33.9375 65.3125 C-33.9375 58.7125 -33.9375 52.1125 -33.9375 45.3125 C-31.194375 45.951875 -28.45125 46.59125 -25.625 47.25 C-24.33468872 47.54958618 -24.33468872 47.54958618 -23.01831055 47.85522461 C-22.33551025 48.01514893 -21.65270996 48.17507324 -20.94921875 48.33984375 C-20.25272217 48.50218506 -19.55622559 48.66452637 -18.83862305 48.83178711 C-17.1840594 49.25015565 -15.55655892 49.77281369 -13.9375 50.3125 C-13.98986816 49.15314941 -14.04223633 47.99379883 -14.09619141 46.79931641 C-14.27852756 42.45766795 -14.39245549 38.11634941 -14.48681641 33.77197266 C-14.53680959 31.8996473 -14.60483455 30.02770651 -14.69189453 28.15673828 C-15.43160341 11.83963061 -15.43160341 11.83963061 -11.80541992 6.80297852 C-7.96044102 2.81476983 -5.62222187 0.44620808 0 0 Z " fill="#FAFAFA" transform="translate(193.9375,57.6875)"/>
<path d="M0 0 C0.73476562 0.25523438 1.46953125 0.51046875 2.2265625 0.7734375 C4.39121611 1.30257505 6.55801258 1.8230018 8.7265625 2.3359375 C10.56110191 2.81046564 12.39486932 3.28803881 14.2265625 3.7734375 C12.85017969 6.98321096 11.35726166 8.61666019 8.65696716 10.78529358 C4.69018032 14.67131457 4.38803392 17.84157594 4.29216003 23.25973511 C4.30797623 24.3566568 4.32379242 25.45357849 4.34008789 26.58374023 C4.32931213 27.75519089 4.31853638 28.92664154 4.30743408 30.1335907 C4.28010284 33.99204888 4.30190115 37.84856762 4.32421875 41.70703125 C4.31483327 44.38752158 4.30271743 47.06786035 4.28697205 49.74830627 C4.2557905 56.0735348 4.25998368 62.39821986 4.27704662 68.72348219 C4.294747 75.92797119 4.27276785 83.13217072 4.24753964 90.33661735 C4.19655505 105.14895178 4.19512662 119.96104306 4.2265625 134.7734375 C-2.69007377 133.67453267 -9.20080549 132.20774565 -15.7734375 129.7734375 C-16.00755025 114.30049528 -16.18362877 98.82768637 -16.29155922 83.35338783 C-16.3430174 76.16744229 -16.41310535 68.98260024 -16.52783203 61.79736328 C-16.62783904 55.53099338 -16.69209672 49.26542286 -16.71432245 42.99827707 C-16.7273068 39.6824645 -16.76290218 36.36945724 -16.83073807 33.05424881 C-17.28895652 9.72715272 -17.28895652 9.72715272 -10.95458984 3.09130859 C-7.40331891 0.33421737 -4.62258037 -1.31258455 0 0 Z " fill="#FAFAFA" transform="translate(135.7734375,42.2265625)"/>
<path d="M0 0 C19 5 19 5 20 6 C20.09386381 7.8718094 20.11743804 9.7471806 20.11352539 11.62133789 C20.11344986 12.82250748 20.11337433 14.02367706 20.11329651 15.26124573 C20.10813522 16.5685112 20.10297394 17.87577667 20.09765625 19.22265625 C20.09579198 20.56644132 20.09436812 21.91022707 20.09336853 23.25401306 C20.08954402 26.79682277 20.07971432 30.3395917 20.06866455 33.88238525 C20.05844899 37.49515227 20.0538706 41.10792584 20.04882812 44.72070312 C20.03809198 51.8138188 20.02101636 58.90690674 20 66 C21.11169556 66.1861084 21.11169556 66.1861084 22.24584961 66.37597656 C23.71550171 66.63072754 23.71550171 66.63072754 25.21484375 66.890625 C26.18284912 67.05594727 27.15085449 67.22126953 28.14819336 67.39160156 C30.77847985 67.95274136 33.07966457 68.73574285 35.5625 69.75 C37.72576138 70.42842382 37.72576138 70.42842382 40 70 C43.82703676 67.07120089 46.84361456 63.61982299 50 60 C50.33 60 50.66 60 51 60 C52.71216483 79.08668667 52.71216483 79.08668667 49.0546875 84.65625 C46.41403024 87.46649075 44.51719076 89.39875263 41 91 C34.07573888 90.55518243 27.55206451 88.69398246 20.87890625 86.875 C19.16815163 86.41456299 19.16815163 86.41456299 17.4228363 85.94482422 C15.02606736 85.29847589 12.63000519 84.64950158 10.23461914 83.99804688 C6.55207876 82.99716761 2.86707393 82.00579262 -0.81835938 81.015625 C-3.14858831 80.38597452 -5.47867176 79.75578535 -7.80859375 79.125 C-8.91577255 78.82706543 -10.02295135 78.52913086 -11.16368103 78.22216797 C-12.17886307 77.94518066 -13.1940451 77.66819336 -14.23999023 77.3828125 C-15.58612648 77.01760498 -15.58612648 77.01760498 -16.9594574 76.64501953 C-19 76 -19 76 -20 75 C-20.08669432 73.5112814 -20.10703494 72.018555 -20.09765625 70.52734375 C-20.09443359 69.62822266 -20.09121094 68.72910156 -20.08789062 67.80273438 C-20.07951172 66.85720703 -20.07113281 65.91167969 -20.0625 64.9375 C-20.05798828 63.98810547 -20.05347656 63.03871094 -20.04882812 62.06054688 C-20.0370011 59.70696935 -20.02052025 57.35351523 -20 55 C-17.22875964 55.64412614 -14.45800555 56.29022748 -11.6875 56.9375 C-10.90181641 57.11990234 -10.11613281 57.30230469 -9.30664062 57.49023438 C-8.1706543 57.75610352 -8.1706543 57.75610352 -7.01171875 58.02734375 C-6.31522217 58.18968506 -5.61872559 58.35202637 -4.90112305 58.51928711 C-3.2465594 58.93765565 -1.61905892 59.46031369 0 60 C0 40.2 0 20.4 0 0 Z " fill="#FAFAFA" transform="translate(280,335)"/>
<path d="M0 0 C0.33 0 0.66 0 1 0 C1.25634227 7.63208779 1.45104724 15.26372302 1.56993389 22.8991518 C1.62703883 26.44612838 1.70428597 29.99013409 1.82983398 33.53540039 C2.72557597 59.5281442 2.72557597 59.5281442 -2.47053528 66.11997986 C-5.54056356 69.1212191 -8.40671578 70.79998361 -12.67016602 71.33520508 C-15.39394141 70.99048672 -17.58146625 70.27470388 -20.125 69.25 C-20.97320312 68.97027344 -21.82140625 68.69054687 -22.6953125 68.40234375 C-28.59134761 66.40865239 -28.59134761 66.40865239 -30 65 C-30.09381302 63.15881971 -30.11743954 61.31402359 -30.11352539 59.47045898 C-30.11344986 58.28931015 -30.11337433 57.10816132 -30.11329651 55.89122009 C-30.10813522 54.6058284 -30.10297394 53.32043671 -30.09765625 51.99609375 C-30.0962413 50.68794205 -30.09482635 49.37979034 -30.09336853 48.03199768 C-30.0895441 44.54837141 -30.07971446 41.06478661 -30.06866455 37.58117676 C-30.05844882 34.02873292 -30.05387056 30.47628241 -30.04882812 26.92382812 C-30.03809212 19.94920168 -30.0210166 12.97460283 -30 6 C-28.26075344 6.2911664 -26.52269559 6.58943818 -24.78515625 6.890625 C-23.33314819 7.1386084 -23.33314819 7.1386084 -21.85180664 7.39160156 C-19.22152015 7.95274136 -16.92033543 8.73574285 -14.4375 9.75 C-12.27423862 10.42842382 -12.27423862 10.42842382 -10 10 C-6.17296324 7.07120089 -3.15638544 3.61982299 0 0 Z " fill="#FEFEFE" transform="translate(330,215)"/>
<path d="M0 0 C12.375 2.25 12.375 2.25 18.41796875 3.9453125 C19.5680542 4.26516113 20.71813965 4.58500977 21.90307617 4.91455078 C23.31693604 5.31399902 24.7307959 5.71344727 26.1875 6.125 C30.745625 7.40375 35.30375 8.6825 40 10 C40 23.53 40 37.06 40 51 C30.656875 48.5559375 30.656875 48.5559375 21.125 46.0625 C19.15934082 45.54953369 17.19368164 45.03656738 15.16845703 44.50805664 C13.61486268 44.10059918 12.06131151 43.69297704 10.5078125 43.28515625 C9.69755615 43.07435425 8.8872998 42.86355225 8.05249023 42.6463623 C2.2281436 41.1140718 2.2281436 41.1140718 0 40 C0 26.8 0 13.6 0 0 Z " fill="#010101" transform="translate(40,271)"/>
<path d="M0 0 C12.375 2.25 12.375 2.25 18.41796875 3.9453125 C19.5680542 4.26516113 20.71813965 4.58500977 21.90307617 4.91455078 C23.31693604 5.31399902 24.7307959 5.71344727 26.1875 6.125 C30.745625 7.40375 35.30375 8.6825 40 10 C40 23.53 40 37.06 40 51 C30.656875 48.5559375 30.656875 48.5559375 21.125 46.0625 C19.15934082 45.54953369 17.19368164 45.03656738 15.16845703 44.50805664 C13.61486268 44.10059918 12.06131151 43.69297704 10.5078125 43.28515625 C9.69755615 43.07435425 8.8872998 42.86355225 8.05249023 42.6463623 C2.2281436 41.1140718 2.2281436 41.1140718 0 40 C0 26.8 0 13.6 0 0 Z " fill="#010101" transform="translate(40,71)"/>
<path d="M0 0 C5.671875 1.44375 11.34375 2.8875 17.1875 4.375 C19.86008911 5.05248291 19.86008911 5.05248291 22.58666992 5.74365234 C24.00967141 6.10747942 25.43260868 6.47155776 26.85546875 6.8359375 C27.95066833 7.11207886 27.95066833 7.11207886 29.06799316 7.39379883 C32.8786545 8.37321987 36.32634471 9.53053788 40 11 C40 24.2 40 37.4 40 51 C34.02806802 49.8056136 28.30439577 48.6298806 22.4609375 47.0546875 C20.67115479 46.57491455 20.67115479 46.57491455 18.84521484 46.08544922 C17.37004395 45.68600098 15.89487305 45.28655273 14.375 44.875 C9.63125 43.59625 4.8875 42.3175 0 41 C0 27.47 0 13.94 0 0 Z " fill="#010101" transform="translate(240,124)"/>
<path d="M0 0 C6.6 1.65 13.2 3.3 20 5 C20 18.2 20 31.4 20 45 C12.98385587 43.59677117 6.735308 42.11681109 0 40 C0 46.6 0 53.2 0 60 C-5.02305841 59.3721177 -9.19076349 58.83148289 -13.9375 57.5 C-14.87464844 57.2421875 -15.81179687 56.984375 -16.77734375 56.71875 C-19 56 -19 56 -20 55 C-20.08868299 52.04294679 -20.11520296 49.10934944 -20.09765625 46.15234375 C-20.0962413 45.2659169 -20.09482635 44.37949005 -20.09336853 43.46620178 C-20.08775215 40.62326746 -20.07519691 37.78041069 -20.0625 34.9375 C-20.05748711 33.01497509 -20.05292384 31.09244896 -20.04882812 29.16992188 C-20.03777741 24.44658451 -20.02050183 19.72330542 -20 15 C-14.72397695 16.00859435 -9.50642503 17.01226642 -4.375 18.625 C-2.93125 19.07875 -1.4875 19.5325 0 20 C0 13.4 0 6.8 0 0 Z " fill="#F6F6F6" transform="translate(220,339)"/>
<path d="M0 0 C6.36776605 1.15777565 12.72107998 2.43027 19 4 C19 30.4 19 56.8 19 84 C8 82 8 82 0 79 C0 52.93 0 26.86 0 0 Z " fill="#FEFEFE" transform="translate(20,246)"/>
<path d="M0 0 C6.36776605 1.15777565 12.72107998 2.43027 19 4 C19 30.4 19 56.8 19 84 C8 82 8 82 0 79 C0 52.93 0 26.86 0 0 Z " fill="#FEFEFE" transform="translate(20,46)"/>
<path d="M0 0 C9.405 2.475 9.405 2.475 19 5 C19 31.4 19 57.8 19 85 C3 81 3 81 0 80 C0 53.6 0 27.2 0 0 Z " fill="#FEFEFE" transform="translate(220,99)"/>
<path d="M0 0 C16 4 16 4 21 6 C21 12.6 21 19.2 21 26 C14.73 24.35 8.46 22.7 2 21 C1.67 34.2 1.34 47.4 1 61 C3.31 61.33 5.62 61.66 8 62 C10.3891454 62.5677969 12.76946505 63.17374374 15.140625 63.8125 C15.78948669 63.98628174 16.43834839 64.16006348 17.10687256 64.33911133 C19.15562781 64.88893544 21.20278318 65.44447868 23.25 66 C24.63792582 66.37274981 26.02594592 66.74514872 27.4140625 67.1171875 C37.4380454 69.8126818 37.4380454 69.8126818 41 71 C41 77.6 41 84.2 41 91 C31.52830515 88.65462794 22.07061597 86.26089823 12.625 83.8125 C11.60849365 83.55065918 10.5919873 83.28881836 9.54467773 83.01904297 C8.59407471 82.7717041 7.64347168 82.52436523 6.6640625 82.26953125 C5.81279785 82.04885986 4.9615332 81.82818848 4.08447266 81.60083008 C2 81 2 81 0 80 C0 53.6 0 27.2 0 0 Z " fill="#F9F9F9" transform="translate(239,104)"/>
<path d="M0 0 C0.33 0 0.66 0 1 0 C2.40027356 43.62757071 2.40027356 43.62757071 1 60 C1.60585937 60.10957031 2.21171875 60.21914063 2.8359375 60.33203125 C4.09277344 60.56986328 4.09277344 60.56986328 5.375 60.8125 C6.18710938 60.96332031 6.99921875 61.11414063 7.8359375 61.26953125 C12.27985869 62.29547355 16.63153574 63.68946072 21 65 C21 78.2 21 91.4 21 105 C14.4 103.35 7.8 101.7 1 100 C1 119.8 1 139.6 1 160 C0.67 160 0.34 160 0 160 C0 107.2 0 54.4 0 0 Z " fill="#EDEDED" transform="translate(139,218)"/>
<path d="M0 0 C9 1.125 9 1.125 11.9375 1.93969727 C12.92762085 2.20986412 12.92762085 2.20986412 13.93774414 2.48548889 C14.61828857 2.67719162 15.29883301 2.86889435 16 3.06640625 C16.7211499 3.26475571 17.4422998 3.46310516 18.18530273 3.66746521 C20.45834782 4.29393176 22.72916727 4.9280665 25 5.5625 C26.55324397 5.99204827 28.10662828 6.4210894 29.66015625 6.84960938 C33.44204521 7.89295868 37.22081959 8.94668114 41 10 C41 16.6 41 23.2 41 30 C27.59710459 26.91614796 14.29608889 23.51438473 1 20 C1 26.27 1 32.54 1 39 C0.67 39 0.34 39 0 39 C0 26.13 0 13.26 0 0 Z " fill="#F2F2F2" transform="translate(79,162)"/>
<path d="M0 0 C9.72132428 2.21714413 19.37601966 4.5788078 29 7.1875 C29.97340332 7.44934082 30.94680664 7.71118164 31.94970703 7.98095703 C33.30491455 8.35196533 33.30491455 8.35196533 34.6875 8.73046875 C35.49574219 8.95114014 36.30398437 9.17181152 37.13671875 9.39916992 C39 10 39 10 40 11 C40.08669432 12.4887186 40.10703494 13.981445 40.09765625 15.47265625 C40.09443359 16.37177734 40.09121094 17.27089844 40.08789062 18.19726562 C40.07532227 19.61555664 40.07532227 19.61555664 40.0625 21.0625 C40.05798828 22.01189453 40.05347656 22.96128906 40.04882812 23.93945312 C40.0370011 26.29303065 40.02052025 28.64648477 40 31 C26.52515288 27.80963178 13.27280794 23.93759969 0 20 C0 13.4 0 6.8 0 0 Z " fill="#020202" transform="translate(160,183)"/>
<path d="M0 0 C4.77999512 0.57199146 9.28987736 1.19631904 13.9375 2.5 C14.87464844 2.7578125 15.81179687 3.015625 16.77734375 3.28125 C19 4 19 4 20 5 C20.08865208 7.8843382 20.11521296 10.74462158 20.09765625 13.62890625 C20.0962413 14.49313705 20.09482635 15.35736786 20.09336853 16.24778748 C20.08775239 19.01939292 20.07519719 21.7909188 20.0625 24.5625 C20.05748708 26.4368478 20.05292381 28.31119685 20.04882812 30.18554688 C20.03777772 34.79039544 20.0205023 39.39518421 20 44 C15.46225324 43.37336198 11.06850915 42.61927183 6.625 41.5 C5.58601562 41.2421875 4.54703125 40.984375 3.4765625 40.71875 C1 40 1 40 0 39 C-0.08865208 36.1156618 -0.11521296 33.25537842 -0.09765625 30.37109375 C-0.0962413 29.50686295 -0.09482635 28.64263214 -0.09336853 27.75221252 C-0.08775239 24.98060708 -0.07519719 22.2090812 -0.0625 19.4375 C-0.05748708 17.5631522 -0.05292381 15.68880315 -0.04882812 13.81445312 C-0.03777772 9.20960456 -0.0205023 4.60481579 0 0 Z " fill="#FAFAFA" transform="translate(180,309)"/>
<path d="M0 0 C10 2 10 2 19 5 C19 18.2 19 31.4 19 45 C9 43 9 43 0 40 C0 26.8 0 13.6 0 0 Z " fill="#FEFEFE" transform="translate(200,354)"/>
<path d="M0 0 C9.405 2.475 9.405 2.475 19 5 C19 18.2 19 31.4 19 45 C2 41 2 41 0 40 C0 26.8 0 13.6 0 0 Z " fill="#FEFEFE" transform="translate(0,180)"/>
<path d="M0 0 C1.48062542 0.26274146 2.95942285 0.53578236 4.4375 0.8125 C5.67306641 1.03873047 5.67306641 1.03873047 6.93359375 1.26953125 C11.02896585 2.24511671 15.00607265 3.66869088 19 5 C19 17.87 19 30.74 19 44 C14.44980872 43.34997267 10.48197295 42.70691771 6.125 41.5 C5.17882812 41.2421875 4.23265625 40.984375 3.2578125 40.71875 C1 40 1 40 0 39 C-0.08865208 36.1156618 -0.11521296 33.25537842 -0.09765625 30.37109375 C-0.0962413 29.50686295 -0.09482635 28.64263214 -0.09336853 27.75221252 C-0.08775239 24.98060708 -0.07519719 22.2090812 -0.0625 19.4375 C-0.05748708 17.5631522 -0.05292381 15.68880315 -0.04882812 13.81445312 C-0.03777772 9.20960456 -0.0205023 4.60481579 0 0 Z " fill="#FEFEFE" transform="translate(140,218)"/>
<path d="M0 0 C0.25634227 7.63208779 0.45104724 15.26372302 0.56993389 22.8991518 C0.62703883 26.44612838 0.70428597 29.99013409 0.82983398 33.53540039 C1.73183619 59.65970499 1.73183619 59.65970499 -3.93534851 66.02763367 C-9.46128535 71 -9.46128535 71 -12 71 C-12.25634227 63.36791221 -12.45104724 55.73627698 -12.56993389 48.1008482 C-12.62703883 44.55387162 -12.70428597 41.00986591 -12.82983398 37.46459961 C-13.73183619 11.34029501 -13.73183619 11.34029501 -8.06465149 4.97236633 C-2.53871465 0 -2.53871465 0 0 0 Z " fill="#ACACAC" transform="translate(331,215)"/>
<path d="M0 0 C0.33 0 0.66 0 1 0 C2.71216483 19.08668667 2.71216483 19.08668667 -0.9453125 24.65625 C-4.68173165 28.63262267 -7.31660089 30.83441976 -12.8125 31.375 C-14.70703125 30.83984375 -14.70703125 30.83984375 -17 30 C-18.11761719 29.67128906 -19.23523438 29.34257812 -20.38671875 29.00390625 C-23.60663618 28.05359548 -26.80521397 27.03164966 -30 26 C-30 19.4 -30 12.8 -30 6 C-28.370625 6.28875 -26.74125 6.5775 -25.0625 6.875 C-23.55042969 7.12636719 -23.55042969 7.12636719 -22.0078125 7.3828125 C-19 8 -19 8 -16.6171875 8.9296875 C-14.12498967 9.86761141 -12.65887503 10.33749014 -10 10 C-6.17296324 7.07120089 -3.15638544 3.61982299 0 0 Z " fill="#FEFEFE" transform="translate(330,395)"/>
<path d="M0 0 C0.33 0 0.66 0 1 0 C2.97213916 18.7698 2.97213916 18.7698 -1.97192383 25.59741211 C-4.49324077 28.3529071 -6.49773343 29.66035536 -10 31 C-15.79997871 30.89841373 -25.72522873 29.27477127 -30 25 C-30.08651611 23.58429877 -30.10704904 22.164405 -30.09765625 20.74609375 C-30.09443359 19.89208984 -30.09121094 19.03808594 -30.08789062 18.15820312 C-30.07951172 17.26037109 -30.07113281 16.36253906 -30.0625 15.4375 C-30.05798828 14.53580078 -30.05347656 13.63410156 -30.04882812 12.70507812 C-30.03700225 10.46998686 -30.0205222 8.23502563 -30 6 C-28.35374012 6.2892494 -26.70801818 6.58156054 -25.0625 6.875 C-23.55042969 7.12636719 -23.55042969 7.12636719 -22.0078125 7.3828125 C-19 8 -19 8 -16.6171875 8.9296875 C-14.12498967 9.86761141 -12.65887503 10.33749014 -10 10 C-6.17296324 7.07120089 -3.15638544 3.61982299 0 0 Z " fill="#FDFDFD" transform="translate(330,295)"/>
<path d="M0 0 C16 4 16 4 21 6 C21 12.6 21 19.2 21 26 C14.73 24.35 8.46 22.7 2 21 C1.67 40.47 1.34 59.94 1 80 C0.67 80 0.34 80 0 80 C0 53.6 0 27.2 0 0 Z " fill="#EBEBEB" transform="translate(239,104)"/>
<path d="M0 0 C11 2 11 2 20 5 C20 11.27 20 17.54 20 24 C12 23 12 23 1 20 C1 39.8 1 59.6 1 80 C0.67 80 0.34 80 0 80 C0 53.6 0 27.2 0 0 Z " fill="#EFEFEF" transform="translate(39,251)"/>
<path d="M0 0 C11 2 11 2 20 5 C20 11.27 20 17.54 20 24 C12 23 12 23 1 20 C1 39.8 1 59.6 1 80 C0.67 80 0.34 80 0 80 C0 53.6 0 27.2 0 0 Z " fill="#EFEFEF" transform="translate(39,51)"/>
<path d="M0 0 C0.33 0 0.66 0 1 0 C1 6.6 1 13.2 1 20 C6.41327009 21.2319947 6.41327009 21.2319947 11.82910156 22.45263672 C12.5094043 22.61006348 13.18970703 22.76749023 13.890625 22.9296875 C14.92751465 23.16534424 14.92751465 23.16534424 15.98535156 23.40576172 C18 24 18 24 22 26 C21.67 32.27 21.34 38.54 21 45 C16.91625 44.0409375 16.91625 44.0409375 12.75 43.0625 C11.47334473 42.76291382 11.47334473 42.76291382 10.17089844 42.45727539 C9.4905957 42.29735107 8.81029297 42.13742676 8.109375 41.97265625 C7.41811523 41.81031494 6.72685547 41.64797363 6.01464844 41.48071289 C4.00628538 41.00149975 2.00309581 40.50077395 0 40 C0 26.8 0 13.6 0 0 Z " fill="#F1F1F1" transform="translate(159,223)"/>
<path d="M0 0 C7.65920156 1.3925821 14.60046216 2.88584633 22 5 C21.67 11.6 21.34 18.2 21 25 C16.8853125 24.0409375 16.8853125 24.0409375 12.6875 23.0625 C11.82729248 22.86277588 10.96708496 22.66305176 10.08081055 22.45727539 C9.05661011 22.21738892 9.05661011 22.21738892 8.01171875 21.97265625 C7.31522217 21.81031494 6.61872559 21.64797363 5.90112305 21.48071289 C4.2465594 21.06234435 2.61905892 20.53968631 1 20 C1 26.6 1 33.2 1 40 C0.67 40 0.34 40 0 40 C0 26.8 0 13.6 0 0 Z " fill="#F2F2F2" transform="translate(39,151)"/>
<path d="M0 0 C0.33 0 0.66 0 1 0 C1 6.6 1 13.2 1 20 C2.44375 20.268125 3.8875 20.53625 5.375 20.8125 C10.70837971 21.87155683 15.8144927 23.37026913 21 25 C21 31.6 21 38.2 21 45 C18.463125 44.38125 15.92625 43.7625 13.3125 43.125 C12.12781128 42.83906982 12.12781128 42.83906982 10.91918945 42.54736328 C9.96338989 42.31122314 9.96338989 42.31122314 8.98828125 42.0703125 C8.34415283 41.91320801 7.70002441 41.75610352 7.03637695 41.59423828 C4.63666941 40.89397594 2.32099927 39.92839971 0 39 C0 26.13 0 13.26 0 0 Z " fill="#F2F2F2" transform="translate(199,254)"/>
<path d="M0 0 C0.33 0 0.66 0 1 0 C1 6.6 1 13.2 1 20 C4.85742188 20.63476562 4.85742188 20.63476562 8.71484375 21.26953125 C12.89250157 22.1984516 16.93993274 23.64664425 21 25 C21 31.6 21 38.2 21 45 C14.07 43.02 7.14 41.04 0 39 C0 26.13 0 13.26 0 0 Z " fill="#F2F2F2" transform="translate(19,186)"/>
<path d="M0 0 C2.743125 0.639375 5.48625 1.27875 8.3125 1.9375 C9.17270752 2.13722412 10.03291504 2.33694824 10.91918945 2.54272461 C11.60198975 2.70264893 12.28479004 2.86257324 12.98828125 3.02734375 C14.03302612 3.27085571 14.03302612 3.27085571 15.09887695 3.51928711 C16.7534406 3.93765565 18.38094108 4.46031369 20 5 C20 11.6 20 18.2 20 25 C12.67629162 24.18625462 6.94173661 23.02101193 0 21 C0 14.07 0 7.14 0 0 Z " fill="#F9F9F9" transform="translate(160,363)"/>
<path d="M0 0 C2.743125 0.639375 5.48625 1.27875 8.3125 1.9375 C9.17270752 2.13722412 10.03291504 2.33694824 10.91918945 2.54272461 C11.60198975 2.70264893 12.28479004 2.86257324 12.98828125 3.02734375 C14.03302612 3.27085571 14.03302612 3.27085571 15.09887695 3.51928711 C16.7534406 3.93765565 18.38094108 4.46031369 20 5 C20.33 11.93 20.66 18.86 21 26 C18.463125 25.38125 15.92625 24.7625 13.3125 24.125 C12.12781128 23.83906982 12.12781128 23.83906982 10.91918945 23.54736328 C10.28198975 23.38993652 9.64479004 23.23250977 8.98828125 23.0703125 C8.34415283 22.91320801 7.70002441 22.75610352 7.03637695 22.59423828 C4.63666941 21.89397594 2.32099927 20.92839971 0 20 C0 13.4 0 6.8 0 0 Z " fill="#020202" transform="translate(0,160)"/>
<path d="M0 0 C2.743125 0.639375 5.48625 1.27875 8.3125 1.9375 C9.17270752 2.13722412 10.03291504 2.33694824 10.91918945 2.54272461 C11.60198975 2.70264893 12.28479004 2.86257324 12.98828125 3.02734375 C14.03302612 3.27085571 14.03302612 3.27085571 15.09887695 3.51928711 C16.7534406 3.93765565 18.38094108 4.46031369 20 5 C20 11.6 20 18.2 20 25 C13.33333333 23.33333333 6.66666667 21.66666667 0 20 C0 13.4 0 6.8 0 0 Z " fill="#F9F9F9" transform="translate(260,250)"/>
<path d="M0 0 C2.743125 0.639375 5.48625 1.27875 8.3125 1.9375 C9.17270752 2.13722412 10.03291504 2.33694824 10.91918945 2.54272461 C11.60198975 2.70264893 12.28479004 2.86257324 12.98828125 3.02734375 C14.03302612 3.27085571 14.03302612 3.27085571 15.09887695 3.51928711 C16.7534406 3.93765565 18.38094108 4.46031369 20 5 C20 11.6 20 18.2 20 25 C15.8853125 24.0409375 15.8853125 24.0409375 11.6875 23.0625 C10.82729248 22.86277588 9.96708496 22.66305176 9.08081055 22.45727539 C8.05661011 22.21738892 8.05661011 22.21738892 7.01171875 21.97265625 C6.31522217 21.81031494 5.61872559 21.64797363 4.90112305 21.48071289 C3.2465594 21.06234435 1.61905892 20.53968631 0 20 C0 13.4 0 6.8 0 0 Z " fill="#F9F9F9" transform="translate(160,183)"/>
<path d="M0 0 C2.743125 0.639375 5.48625 1.27875 8.3125 1.9375 C9.17270752 2.13722412 10.03291504 2.33694824 10.91918945 2.54272461 C11.60198975 2.70264893 12.28479004 2.86257324 12.98828125 3.02734375 C14.03302612 3.27085571 14.03302612 3.27085571 15.09887695 3.51928711 C16.7534406 3.93765565 18.38094108 4.46031369 20 5 C20 11.6 20 18.2 20 25 C15.8853125 24.0409375 15.8853125 24.0409375 11.6875 23.0625 C10.82729248 22.86277588 9.96708496 22.66305176 9.08081055 22.45727539 C8.05661011 22.21738892 8.05661011 22.21738892 7.01171875 21.97265625 C6.31522217 21.81031494 5.61872559 21.64797363 4.90112305 21.48071289 C3.2465594 21.06234435 1.61905892 20.53968631 0 20 C0 13.4 0 6.8 0 0 Z " fill="#F9F9F9" transform="translate(100,167)"/>
<path d="M0 0 C4.145625 0.9590625 4.145625 0.9590625 8.375 1.9375 C9.67896729 2.23708618 9.67896729 2.23708618 11.00927734 2.54272461 C11.6945752 2.70264893 12.37987305 2.86257324 13.0859375 3.02734375 C13.7876709 3.18968506 14.4894043 3.35202637 15.21240234 3.51928711 C17 4 17 4 19 5 C19 11.27 19 17.54 19 24 C12.18372958 23.1479662 6.52819721 21.8768567 0 20 C0 13.4 0 6.8 0 0 Z " fill="#FDFDFD" transform="translate(40,311)"/>
<path d="M0 0 C4.145625 0.9590625 4.145625 0.9590625 8.375 1.9375 C9.67896729 2.23708618 9.67896729 2.23708618 11.00927734 2.54272461 C11.6945752 2.70264893 12.37987305 2.86257324 13.0859375 3.02734375 C13.7876709 3.18968506 14.4894043 3.35202637 15.21240234 3.51928711 C17 4 17 4 19 5 C19 11.27 19 17.54 19 24 C12.18372958 23.1479662 6.52819721 21.8768567 0 20 C0 13.4 0 6.8 0 0 Z " fill="#FDFDFD" transform="translate(40,211)"/>
<path d="M0 0 C4.145625 0.9590625 4.145625 0.9590625 8.375 1.9375 C9.67896729 2.23708618 9.67896729 2.23708618 11.00927734 2.54272461 C11.6945752 2.70264893 12.37987305 2.86257324 13.0859375 3.02734375 C13.7876709 3.18968506 14.4894043 3.35202637 15.21240234 3.51928711 C17 4 17 4 19 5 C19 11.27 19 17.54 19 24 C12.18372958 23.1479662 6.52819721 21.8768567 0 20 C0 13.4 0 6.8 0 0 Z " fill="#FDFDFD" transform="translate(40,111)"/>
<path d="M0 0 C1.7331298 19.32039774 1.7331298 19.32039774 -2.15625 24.62109375 C-8.59996372 31 -8.59996372 31 -12 31 C-13.90949641 12.82640126 -13.90949641 12.82640126 -9.5859375 7.22265625 C-2.78741349 0 -2.78741349 0 0 0 Z " fill="#ACACAC" transform="translate(331,395)"/>
<path d="M0 0 C1.90949641 18.17359874 1.90949641 18.17359874 -2.4140625 23.77734375 C-5.01084298 26.5361268 -7.86534909 28.86785055 -11 31 C-11.33 31 -11.66 31 -12 31 C-13.90949641 12.82640126 -13.90949641 12.82640126 -9.5859375 7.22265625 C-2.78741349 0 -2.78741349 0 0 0 Z " fill="#AAAAAA" transform="translate(331,295)"/>
</svg>
