<svg width="118" height="15" viewBox="0 0 118 15" fill="none" xmlns="http://www.w3.org/2000/svg">
<path d="M0.881109 3.72113C0.332741 3.78679 -0.0585692 4.28456 0.00709271 4.83293C0.0727546 5.38129 0.570524 5.7726 1.11889 5.70694L0.881109 3.72113ZM117.542 9.9359C118.006 9.63671 118.14 9.01785 117.841 8.55362L112.965 0.988582C112.666 0.524354 112.047 0.390558 111.583 0.689742C111.119 0.988925 110.985 1.60779 111.284 2.07202L115.618 8.7965L108.893 13.1302C108.429 13.4294 108.295 14.0483 108.594 14.5125C108.894 14.9768 109.512 15.1106 109.977 14.8114L117.542 9.9359ZM1.11889 5.70694C47.1213 0.19859 72.4791 0.493295 116.789 10.0728L117.211 8.11792C72.6498 -1.51601 47.0651 -1.80897 0.881109 3.72113L1.11889 5.70694Z" fill="#D4D4D8"/>
</svg>
