<svg width="122" height="17" viewBox="0 0 122 17" fill="none" xmlns="http://www.w3.org/2000/svg">
<path d="M0.668514 10.1519C0.147455 10.335 -0.126535 10.9058 0.05654 11.4268C0.239615 11.9479 0.810428 12.2219 1.33149 12.0388L0.668514 10.1519ZM121.477 11.9745C121.962 11.7112 122.142 11.1043 121.879 10.6187L117.59 2.70672C117.326 2.2212 116.719 2.04099 116.234 2.30422C115.748 2.56744 115.568 3.17442 115.831 3.65994L119.644 10.6929L112.611 14.5057C112.126 14.769 111.946 15.3759 112.209 15.8615C112.472 16.347 113.079 16.5272 113.565 16.264L121.477 11.9745ZM1.33149 12.0388C38.1087 -0.882927 74.0283 -1.80699 120.715 12.054L121.285 10.1367C74.2458 -3.8287 37.8913 -2.92639 0.668514 10.1519L1.33149 12.0388Z" fill="#D4D4D8"/>
</svg>
