<svg width="114" height="15" viewBox="0 0 114 15" fill="none" xmlns="http://www.w3.org/2000/svg">
<path d="M113.115 2.58495C113.635 2.39827 113.905 1.82557 113.718 1.3058C113.531 0.786019 112.959 0.51599 112.439 0.702671L113.115 2.58495ZM0.722811 5.59646C0.274393 5.91885 0.172231 6.54372 0.49463 6.99214L5.7484 14.2995C6.0708 14.7479 6.69566 14.8501 7.14408 14.5277C7.5925 14.2053 7.69465 13.5804 7.37226 13.132L2.70225 6.63657L9.1977 1.96655C9.64612 1.64416 9.74828 1.01929 9.42588 0.57087C9.10349 0.122452 8.47862 0.0202922 8.0302 0.342689L0.722811 5.59646ZM112.439 0.702671C95.8587 6.65751 82.1398 10.1153 65.5848 10.9544C49.008 11.7945 29.5426 10.0114 1.46791 5.42149L1.14521 7.39529C29.264 11.9924 48.8954 13.8028 65.686 12.9518C82.4986 12.0997 96.4181 8.58166 113.115 2.58495L112.439 0.702671Z" fill="#D4D4D8"/>
</svg>
