<svg width="122" height="16" viewBox="0 0 122 16" fill="none" xmlns="http://www.w3.org/2000/svg">
<path d="M121.213 7.0725C121.752 6.95513 122.095 6.42249 121.977 5.88282C121.86 5.34315 121.327 5.00082 120.787 5.11819L121.213 7.0725ZM0.475434 5.24397C0.00523451 5.53368 -0.141082 6.14971 0.148629 6.6199L4.86974 14.2822C5.15945 14.7524 5.77547 14.8987 6.24567 14.609C6.71587 14.3193 6.86218 13.7033 6.57247 13.2331L2.37594 6.42214L9.18689 2.2256C9.65709 1.93589 9.80341 1.31987 9.5137 0.849667C9.22398 0.379469 8.60796 0.233155 8.13776 0.522865L0.475434 5.24397ZM120.787 5.11819C97.3846 10.2082 79.1775 12.9749 60.9936 13.0915C42.8145 13.2081 24.6138 10.6761 1.23109 5.1224L0.768914 7.06827C24.2491 12.6451 42.617 15.2094 61.0064 15.0914C79.391 14.9735 97.7525 12.1749 121.213 7.0725L120.787 5.11819Z" fill="#D4D4D8"/>
</svg>
