<?xml version="1.0" encoding="utf-8"?>
<!-- Generator: Adobe Illustrator 25.0.1, SVG Export Plug-In . SVG Version: 6.00 Build 0)  -->
<svg version="1.0" id="Logos" xmlns="http://www.w3.org/2000/svg" xmlns:xlink="http://www.w3.org/1999/xlink" x="0px" y="0px"
     width="350px" height="350px" viewBox="0 0 350 350" enable-background="new 0 0 350 350" xml:space="preserve">
<linearGradient id="Symbol_-_Color_Gradient_-_On_White_2_" gradientUnits="userSpaceOnUse" x1="-3.6981" y1="175" x2="341.5471" y2="175">
	<stop  offset="0" style="stop-color:#D4019C"/>
    <stop  offset="1" style="stop-color:#E79258"/>
</linearGradient>
    <path id="Symbol_-_Color_Gradient_-_On_White_1_" fill="url(#Symbol_-_Color_Gradient_-_On_White_2_)" d="M350,175
	c0,96.7-78.3,175-175,175c-7,0-13.8-0.4-20.6-1.2c-4.8-0.6-5-4-0.2-5c78-16.5,136.6-85.8,136.6-168.8c0-82.9-58.5-152.2-136.5-168.7
	c-4.8-1-4.6-4.5,0.2-5C161.2,0.4,168,0,175,0C271.7,0,350,78.3,350,175z M36.3,138.7C16.2,138.7,0,155,0,175
	c0,20,16.2,36.3,36.3,36.3c20,0,36.3-16.2,36.3-36.3C72.6,155,56.3,138.7,36.3,138.7z M118.2,35.7c-19.4,0-37.9,4-54.7,11.2
	c-4.5,1.9-3.6,5.3,1.2,4.9c3.3-0.3,6.6-0.4,9.9-0.4c68.3,0,123.6,55.3,123.6,123.6c0,68.3-55.3,123.6-123.6,123.6
	c-3.3,0-6.6-0.1-9.9-0.4c-4.9-0.4-5.7,3-1.2,4.9c16.8,7.2,35.3,11.1,54.7,11.1c76.9,0,139.3-62.4,139.3-139.3
	C257.5,98.1,195.2,35.7,118.2,35.7z M74.6,84.6c-25.1,0-43.7,10.2-53.7,17.6c-3.7,2.7-2.5,5.4,2,4.6c4.3-0.8,8.8-1.3,13.3-1.3
	c38.4,0,69.5,31.1,69.5,69.5c0,38.4-31.1,69.5-69.5,69.5c-4.6,0-9-0.4-13.3-1.3c-4.5-0.9-5.7,1.9-2,4.6c10,7.4,28.6,17.6,53.7,17.6
	c49.9,0,90.4-40.5,90.4-90.4C165,125.1,124.6,84.6,74.6,84.6z"/>
</svg>